<mxfile host="app.diagrams.net" modified="2023-12-29T02:12:58.270Z" agent="Mozilla/5.0 (Windows NT 10.0; Win64; x64) AppleWebKit/537.36 (KHTML, like Gecko) Chrome/120.0.0.0 Safari/537.36" etag="FNCrF32EL_leKMAQ2qTQ" version="22.1.15" type="github">
  <diagram name="페이지-1" id="DdECNotUcU2G07fM67gr">
    <mxGraphModel dx="801" dy="778" grid="1" gridSize="10" guides="1" tooltips="1" connect="1" arrows="1" fold="1" page="1" pageScale="1" pageWidth="827" pageHeight="1169" math="0" shadow="0">
      <root>
        <mxCell id="0" />
        <mxCell id="1" parent="0" />
        <mxCell id="uwEu2mCsa71uAg6sMR2n-6" value="회원" style="shape=umlActor;verticalLabelPosition=bottom;verticalAlign=top;html=1;outlineConnect=0;" vertex="1" parent="1">
          <mxGeometry x="20" y="940" width="30" height="60" as="geometry" />
        </mxCell>
        <mxCell id="uwEu2mCsa71uAg6sMR2n-7" value="비회원" style="shape=umlActor;verticalLabelPosition=bottom;verticalAlign=top;html=1;outlineConnect=0;" vertex="1" parent="1">
          <mxGeometry x="20" y="475" width="30" height="60" as="geometry" />
        </mxCell>
        <mxCell id="uwEu2mCsa71uAg6sMR2n-8" value="관리자" style="shape=umlActor;verticalLabelPosition=bottom;verticalAlign=top;html=1;outlineConnect=0;" vertex="1" parent="1">
          <mxGeometry x="780" y="544.5" width="30" height="60" as="geometry" />
        </mxCell>
        <mxCell id="uwEu2mCsa71uAg6sMR2n-9" value="MBTI 검사&lt;br&gt;SYSTEM" style="shape=umlFrame;whiteSpace=wrap;html=1;pointerEvents=0;width=100;height=30;" vertex="1" parent="1">
          <mxGeometry x="100" y="80" width="640" height="1410" as="geometry" />
        </mxCell>
        <mxCell id="uwEu2mCsa71uAg6sMR2n-10" value="회원가입" style="ellipse;whiteSpace=wrap;html=1;" vertex="1" parent="1">
          <mxGeometry x="150" y="470" width="100" height="70" as="geometry" />
        </mxCell>
        <mxCell id="uwEu2mCsa71uAg6sMR2n-11" value="회원정보조회" style="ellipse;whiteSpace=wrap;html=1;" vertex="1" parent="1">
          <mxGeometry x="197.41" y="1205.1100000000001" width="100" height="70" as="geometry" />
        </mxCell>
        <mxCell id="uwEu2mCsa71uAg6sMR2n-12" value="회원수정" style="ellipse;whiteSpace=wrap;html=1;" vertex="1" parent="1">
          <mxGeometry x="197.41" y="1025.1100000000001" width="100" height="70" as="geometry" />
        </mxCell>
        <mxCell id="uwEu2mCsa71uAg6sMR2n-13" value="회원탈퇴" style="ellipse;whiteSpace=wrap;html=1;" vertex="1" parent="1">
          <mxGeometry x="197.41" y="1115.1100000000001" width="100" height="70" as="geometry" />
        </mxCell>
        <mxCell id="uwEu2mCsa71uAg6sMR2n-14" value="" style="endArrow=none;html=1;rounded=0;" edge="1" parent="1" source="uwEu2mCsa71uAg6sMR2n-7" target="uwEu2mCsa71uAg6sMR2n-10">
          <mxGeometry width="50" height="50" relative="1" as="geometry">
            <mxPoint x="390" y="430" as="sourcePoint" />
            <mxPoint x="440" y="380" as="targetPoint" />
          </mxGeometry>
        </mxCell>
        <mxCell id="uwEu2mCsa71uAg6sMR2n-15" value="use" style="edgeLabel;html=1;align=center;verticalAlign=middle;resizable=0;points=[];" vertex="1" connectable="0" parent="uwEu2mCsa71uAg6sMR2n-14">
          <mxGeometry x="0.075" y="-2" relative="1" as="geometry">
            <mxPoint as="offset" />
          </mxGeometry>
        </mxCell>
        <mxCell id="uwEu2mCsa71uAg6sMR2n-17" value="" style="endArrow=none;html=1;rounded=0;exitX=1;exitY=0.3333333333333333;exitDx=0;exitDy=0;exitPerimeter=0;entryX=0;entryY=0.5;entryDx=0;entryDy=0;" edge="1" parent="1" source="uwEu2mCsa71uAg6sMR2n-6" target="uwEu2mCsa71uAg6sMR2n-12">
          <mxGeometry width="50" height="50" relative="1" as="geometry">
            <mxPoint x="70" y="180" as="sourcePoint" />
            <mxPoint x="150" y="180" as="targetPoint" />
          </mxGeometry>
        </mxCell>
        <mxCell id="uwEu2mCsa71uAg6sMR2n-18" value="use" style="edgeLabel;html=1;align=center;verticalAlign=middle;resizable=0;points=[];" vertex="1" connectable="0" parent="uwEu2mCsa71uAg6sMR2n-17">
          <mxGeometry x="0.075" y="-2" relative="1" as="geometry">
            <mxPoint as="offset" />
          </mxGeometry>
        </mxCell>
        <mxCell id="uwEu2mCsa71uAg6sMR2n-19" value="" style="endArrow=none;html=1;rounded=0;exitX=1;exitY=0.3333333333333333;exitDx=0;exitDy=0;exitPerimeter=0;entryX=0;entryY=0.5;entryDx=0;entryDy=0;" edge="1" parent="1" source="uwEu2mCsa71uAg6sMR2n-6" target="uwEu2mCsa71uAg6sMR2n-13">
          <mxGeometry width="50" height="50" relative="1" as="geometry">
            <mxPoint x="70" y="540" as="sourcePoint" />
            <mxPoint x="150" y="295" as="targetPoint" />
          </mxGeometry>
        </mxCell>
        <mxCell id="uwEu2mCsa71uAg6sMR2n-20" value="use" style="edgeLabel;html=1;align=center;verticalAlign=middle;resizable=0;points=[];" vertex="1" connectable="0" parent="uwEu2mCsa71uAg6sMR2n-19">
          <mxGeometry x="0.075" y="-2" relative="1" as="geometry">
            <mxPoint as="offset" />
          </mxGeometry>
        </mxCell>
        <mxCell id="uwEu2mCsa71uAg6sMR2n-21" value="" style="endArrow=none;html=1;rounded=0;exitX=1;exitY=0.3333333333333333;exitDx=0;exitDy=0;exitPerimeter=0;entryX=0;entryY=0.5;entryDx=0;entryDy=0;" edge="1" parent="1" source="uwEu2mCsa71uAg6sMR2n-6" target="uwEu2mCsa71uAg6sMR2n-11">
          <mxGeometry width="50" height="50" relative="1" as="geometry">
            <mxPoint x="70" y="540" as="sourcePoint" />
            <mxPoint x="150" y="295" as="targetPoint" />
          </mxGeometry>
        </mxCell>
        <mxCell id="uwEu2mCsa71uAg6sMR2n-22" value="use" style="edgeLabel;html=1;align=center;verticalAlign=middle;resizable=0;points=[];" vertex="1" connectable="0" parent="uwEu2mCsa71uAg6sMR2n-21">
          <mxGeometry x="0.075" y="-2" relative="1" as="geometry">
            <mxPoint as="offset" />
          </mxGeometry>
        </mxCell>
        <mxCell id="uwEu2mCsa71uAg6sMR2n-23" value="로그인" style="ellipse;whiteSpace=wrap;html=1;" vertex="1" parent="1">
          <mxGeometry x="397.40999999999997" y="1115.1100000000001" width="100" height="70" as="geometry" />
        </mxCell>
        <mxCell id="uwEu2mCsa71uAg6sMR2n-25" value="" style="endArrow=none;dashed=1;html=1;rounded=0;exitX=1;exitY=0.5;exitDx=0;exitDy=0;entryX=0;entryY=0.5;entryDx=0;entryDy=0;" edge="1" parent="1" source="uwEu2mCsa71uAg6sMR2n-12" target="uwEu2mCsa71uAg6sMR2n-23">
          <mxGeometry width="50" height="50" relative="1" as="geometry">
            <mxPoint x="447.40999999999997" y="1135.1100000000001" as="sourcePoint" />
            <mxPoint x="397.40999999999997" y="1035.1100000000001" as="targetPoint" />
          </mxGeometry>
        </mxCell>
        <mxCell id="uwEu2mCsa71uAg6sMR2n-31" value="include" style="edgeLabel;html=1;align=center;verticalAlign=middle;resizable=0;points=[];" vertex="1" connectable="0" parent="uwEu2mCsa71uAg6sMR2n-25">
          <mxGeometry x="-0.1651" y="3" relative="1" as="geometry">
            <mxPoint as="offset" />
          </mxGeometry>
        </mxCell>
        <mxCell id="uwEu2mCsa71uAg6sMR2n-26" value="" style="endArrow=none;dashed=1;html=1;rounded=0;exitX=1;exitY=0.5;exitDx=0;exitDy=0;entryX=0;entryY=0.5;entryDx=0;entryDy=0;" edge="1" parent="1" source="uwEu2mCsa71uAg6sMR2n-13" target="uwEu2mCsa71uAg6sMR2n-23">
          <mxGeometry width="50" height="50" relative="1" as="geometry">
            <mxPoint x="307.40999999999997" y="1000.11" as="sourcePoint" />
            <mxPoint x="407.40999999999997" y="1045.1100000000001" as="targetPoint" />
          </mxGeometry>
        </mxCell>
        <mxCell id="uwEu2mCsa71uAg6sMR2n-29" value="include" style="edgeLabel;html=1;align=center;verticalAlign=middle;resizable=0;points=[];" vertex="1" connectable="0" parent="uwEu2mCsa71uAg6sMR2n-26">
          <mxGeometry x="0.0174" y="-2" relative="1" as="geometry">
            <mxPoint as="offset" />
          </mxGeometry>
        </mxCell>
        <mxCell id="uwEu2mCsa71uAg6sMR2n-27" value="" style="endArrow=none;dashed=1;html=1;rounded=0;exitX=1;exitY=0.5;exitDx=0;exitDy=0;entryX=0;entryY=0.5;entryDx=0;entryDy=0;" edge="1" parent="1" source="uwEu2mCsa71uAg6sMR2n-11" target="uwEu2mCsa71uAg6sMR2n-23">
          <mxGeometry width="50" height="50" relative="1" as="geometry">
            <mxPoint x="317.40999999999997" y="1010.11" as="sourcePoint" />
            <mxPoint x="417.40999999999997" y="1055.1100000000001" as="targetPoint" />
          </mxGeometry>
        </mxCell>
        <mxCell id="uwEu2mCsa71uAg6sMR2n-32" value="include" style="edgeLabel;html=1;align=center;verticalAlign=middle;resizable=0;points=[];" vertex="1" connectable="0" parent="uwEu2mCsa71uAg6sMR2n-27">
          <mxGeometry x="0.08" relative="1" as="geometry">
            <mxPoint as="offset" />
          </mxGeometry>
        </mxCell>
        <mxCell id="uwEu2mCsa71uAg6sMR2n-127" value="" style="edgeStyle=orthogonalEdgeStyle;rounded=0;orthogonalLoop=1;jettySize=auto;html=1;dashed=1;" edge="1" parent="1" source="uwEu2mCsa71uAg6sMR2n-44" target="uwEu2mCsa71uAg6sMR2n-48">
          <mxGeometry relative="1" as="geometry">
            <Array as="points">
              <mxPoint x="200" y="610" />
              <mxPoint x="280" y="610" />
            </Array>
          </mxGeometry>
        </mxCell>
        <mxCell id="uwEu2mCsa71uAg6sMR2n-132" value="include" style="edgeLabel;html=1;align=center;verticalAlign=middle;resizable=0;points=[];" vertex="1" connectable="0" parent="uwEu2mCsa71uAg6sMR2n-127">
          <mxGeometry x="-0.0747" y="-1" relative="1" as="geometry">
            <mxPoint as="offset" />
          </mxGeometry>
        </mxCell>
        <mxCell id="uwEu2mCsa71uAg6sMR2n-128" value="" style="edgeStyle=orthogonalEdgeStyle;rounded=0;orthogonalLoop=1;jettySize=auto;html=1;dashed=1;" edge="1" parent="1" source="uwEu2mCsa71uAg6sMR2n-44" target="uwEu2mCsa71uAg6sMR2n-97">
          <mxGeometry relative="1" as="geometry" />
        </mxCell>
        <mxCell id="uwEu2mCsa71uAg6sMR2n-133" value="Text" style="edgeLabel;html=1;align=center;verticalAlign=middle;resizable=0;points=[];" vertex="1" connectable="0" parent="uwEu2mCsa71uAg6sMR2n-128">
          <mxGeometry x="-0.3867" y="3" relative="1" as="geometry">
            <mxPoint as="offset" />
          </mxGeometry>
        </mxCell>
        <mxCell id="uwEu2mCsa71uAg6sMR2n-44" value="검사" style="ellipse;whiteSpace=wrap;html=1;" vertex="1" parent="1">
          <mxGeometry x="150" y="635" width="100" height="70" as="geometry" />
        </mxCell>
        <mxCell id="uwEu2mCsa71uAg6sMR2n-131" value="" style="edgeStyle=orthogonalEdgeStyle;rounded=0;orthogonalLoop=1;jettySize=auto;html=1;dashed=1;" edge="1" parent="1" source="uwEu2mCsa71uAg6sMR2n-48" target="uwEu2mCsa71uAg6sMR2n-130">
          <mxGeometry relative="1" as="geometry" />
        </mxCell>
        <mxCell id="uwEu2mCsa71uAg6sMR2n-48" value="유료결제" style="ellipse;whiteSpace=wrap;html=1;" vertex="1" parent="1">
          <mxGeometry x="250" y="544.5" width="60" height="30" as="geometry" />
        </mxCell>
        <mxCell id="uwEu2mCsa71uAg6sMR2n-66" value="회원관리" style="ellipse;whiteSpace=wrap;html=1;" vertex="1" parent="1">
          <mxGeometry x="584" y="499.5" width="100" height="70" as="geometry" />
        </mxCell>
        <mxCell id="uwEu2mCsa71uAg6sMR2n-68" value="모니터링" style="ellipse;whiteSpace=wrap;html=1;" vertex="1" parent="1">
          <mxGeometry x="580" y="670" width="100" height="70" as="geometry" />
        </mxCell>
        <mxCell id="uwEu2mCsa71uAg6sMR2n-73" style="edgeStyle=orthogonalEdgeStyle;rounded=0;orthogonalLoop=1;jettySize=auto;html=1;exitX=0.5;exitY=1;exitDx=0;exitDy=0;" edge="1" parent="1" source="uwEu2mCsa71uAg6sMR2n-68" target="uwEu2mCsa71uAg6sMR2n-68">
          <mxGeometry relative="1" as="geometry" />
        </mxCell>
        <mxCell id="uwEu2mCsa71uAg6sMR2n-79" value="" style="edgeStyle=orthogonalEdgeStyle;rounded=0;orthogonalLoop=1;jettySize=auto;html=1;" edge="1" parent="1" source="uwEu2mCsa71uAg6sMR2n-74" target="uwEu2mCsa71uAg6sMR2n-66">
          <mxGeometry relative="1" as="geometry">
            <Array as="points">
              <mxPoint x="544" y="639.5" />
              <mxPoint x="544" y="534.5" />
            </Array>
          </mxGeometry>
        </mxCell>
        <mxCell id="uwEu2mCsa71uAg6sMR2n-74" value="회원삭제" style="ellipse;whiteSpace=wrap;html=1;" vertex="1" parent="1">
          <mxGeometry x="434" y="604.5" width="80" height="60" as="geometry" />
        </mxCell>
        <mxCell id="uwEu2mCsa71uAg6sMR2n-78" value="" style="edgeStyle=orthogonalEdgeStyle;rounded=0;orthogonalLoop=1;jettySize=auto;html=1;" edge="1" parent="1" source="uwEu2mCsa71uAg6sMR2n-75" target="uwEu2mCsa71uAg6sMR2n-66">
          <mxGeometry relative="1" as="geometry">
            <Array as="points">
              <mxPoint x="574" y="534.5" />
              <mxPoint x="574" y="534.5" />
            </Array>
          </mxGeometry>
        </mxCell>
        <mxCell id="uwEu2mCsa71uAg6sMR2n-75" value="회원수정" style="ellipse;whiteSpace=wrap;html=1;" vertex="1" parent="1">
          <mxGeometry x="434" y="504.5" width="80" height="60" as="geometry" />
        </mxCell>
        <mxCell id="uwEu2mCsa71uAg6sMR2n-77" value="" style="edgeStyle=orthogonalEdgeStyle;rounded=0;orthogonalLoop=1;jettySize=auto;html=1;" edge="1" parent="1" source="uwEu2mCsa71uAg6sMR2n-76" target="uwEu2mCsa71uAg6sMR2n-66">
          <mxGeometry relative="1" as="geometry">
            <Array as="points">
              <mxPoint x="544" y="449.5" />
              <mxPoint x="544" y="534.5" />
            </Array>
          </mxGeometry>
        </mxCell>
        <mxCell id="uwEu2mCsa71uAg6sMR2n-76" value="회원조회" style="ellipse;whiteSpace=wrap;html=1;" vertex="1" parent="1">
          <mxGeometry x="434" y="430" width="80" height="60" as="geometry" />
        </mxCell>
        <mxCell id="uwEu2mCsa71uAg6sMR2n-80" value="" style="endArrow=none;html=1;rounded=0;exitX=1;exitY=0.614;exitDx=0;exitDy=0;exitPerimeter=0;" edge="1" parent="1" source="uwEu2mCsa71uAg6sMR2n-66" target="uwEu2mCsa71uAg6sMR2n-8">
          <mxGeometry width="50" height="50" relative="1" as="geometry">
            <mxPoint x="390" y="490" as="sourcePoint" />
            <mxPoint x="440" y="440" as="targetPoint" />
          </mxGeometry>
        </mxCell>
        <mxCell id="uwEu2mCsa71uAg6sMR2n-82" value="" style="endArrow=none;html=1;rounded=0;exitX=1;exitY=0.5;exitDx=0;exitDy=0;" edge="1" parent="1" source="uwEu2mCsa71uAg6sMR2n-68" target="uwEu2mCsa71uAg6sMR2n-8">
          <mxGeometry width="50" height="50" relative="1" as="geometry">
            <mxPoint x="390" y="490" as="sourcePoint" />
            <mxPoint x="770" y="440" as="targetPoint" />
          </mxGeometry>
        </mxCell>
        <mxCell id="uwEu2mCsa71uAg6sMR2n-125" value="" style="edgeStyle=orthogonalEdgeStyle;rounded=0;orthogonalLoop=1;jettySize=auto;html=1;" edge="1" parent="1" source="uwEu2mCsa71uAg6sMR2n-83" target="uwEu2mCsa71uAg6sMR2n-76">
          <mxGeometry relative="1" as="geometry">
            <Array as="points">
              <mxPoint x="514" y="410" />
              <mxPoint x="474" y="410" />
            </Array>
          </mxGeometry>
        </mxCell>
        <mxCell id="uwEu2mCsa71uAg6sMR2n-83" value="전체" style="ellipse;whiteSpace=wrap;html=1;" vertex="1" parent="1">
          <mxGeometry x="484" y="349.5" width="60" height="50" as="geometry" />
        </mxCell>
        <mxCell id="uwEu2mCsa71uAg6sMR2n-124" value="" style="edgeStyle=orthogonalEdgeStyle;rounded=0;orthogonalLoop=1;jettySize=auto;html=1;" edge="1" parent="1" source="uwEu2mCsa71uAg6sMR2n-85" target="uwEu2mCsa71uAg6sMR2n-76">
          <mxGeometry relative="1" as="geometry">
            <Array as="points">
              <mxPoint x="430" y="410" />
              <mxPoint x="474" y="410" />
            </Array>
          </mxGeometry>
        </mxCell>
        <mxCell id="uwEu2mCsa71uAg6sMR2n-85" value="키워드" style="ellipse;whiteSpace=wrap;html=1;" vertex="1" parent="1">
          <mxGeometry x="400" y="349.5" width="60" height="50.5" as="geometry" />
        </mxCell>
        <mxCell id="uwEu2mCsa71uAg6sMR2n-93" value="" style="endArrow=none;html=1;rounded=0;" edge="1" parent="1" source="uwEu2mCsa71uAg6sMR2n-6" target="uwEu2mCsa71uAg6sMR2n-44">
          <mxGeometry width="50" height="50" relative="1" as="geometry">
            <mxPoint x="50" y="915" as="sourcePoint" />
            <mxPoint x="150" y="820" as="targetPoint" />
          </mxGeometry>
        </mxCell>
        <mxCell id="uwEu2mCsa71uAg6sMR2n-94" value="use" style="edgeLabel;html=1;align=center;verticalAlign=middle;resizable=0;points=[];" vertex="1" connectable="0" parent="uwEu2mCsa71uAg6sMR2n-93">
          <mxGeometry x="0.075" y="-2" relative="1" as="geometry">
            <mxPoint x="47" y="195" as="offset" />
          </mxGeometry>
        </mxCell>
        <mxCell id="uwEu2mCsa71uAg6sMR2n-95" value="" style="endArrow=none;html=1;rounded=0;" edge="1" parent="1" source="uwEu2mCsa71uAg6sMR2n-7" target="uwEu2mCsa71uAg6sMR2n-44">
          <mxGeometry width="50" height="50" relative="1" as="geometry">
            <mxPoint x="60" y="515" as="sourcePoint" />
            <mxPoint x="160" y="515" as="targetPoint" />
          </mxGeometry>
        </mxCell>
        <mxCell id="uwEu2mCsa71uAg6sMR2n-96" value="use" style="edgeLabel;html=1;align=center;verticalAlign=middle;resizable=0;points=[];" vertex="1" connectable="0" parent="uwEu2mCsa71uAg6sMR2n-95">
          <mxGeometry x="0.075" y="-2" relative="1" as="geometry">
            <mxPoint as="offset" />
          </mxGeometry>
        </mxCell>
        <mxCell id="uwEu2mCsa71uAg6sMR2n-97" value="검사 결과" style="ellipse;whiteSpace=wrap;html=1;" vertex="1" parent="1">
          <mxGeometry x="310" y="650" width="100" height="70" as="geometry" />
        </mxCell>
        <mxCell id="uwEu2mCsa71uAg6sMR2n-116" value="" style="edgeStyle=orthogonalEdgeStyle;rounded=0;orthogonalLoop=1;jettySize=auto;html=1;" edge="1" parent="1" source="uwEu2mCsa71uAg6sMR2n-99" target="uwEu2mCsa71uAg6sMR2n-11">
          <mxGeometry relative="1" as="geometry" />
        </mxCell>
        <mxCell id="uwEu2mCsa71uAg6sMR2n-99" value="이전&lt;br&gt;검사 결과" style="ellipse;whiteSpace=wrap;html=1;" vertex="1" parent="1">
          <mxGeometry x="140" y="1349.0000000000002" width="70" height="40" as="geometry" />
        </mxCell>
        <mxCell id="uwEu2mCsa71uAg6sMR2n-120" value="" style="edgeStyle=orthogonalEdgeStyle;rounded=0;orthogonalLoop=1;jettySize=auto;html=1;" edge="1" parent="1" source="uwEu2mCsa71uAg6sMR2n-102" target="uwEu2mCsa71uAg6sMR2n-11">
          <mxGeometry relative="1" as="geometry">
            <Array as="points">
              <mxPoint x="247" y="1330" />
              <mxPoint x="247" y="1330" />
            </Array>
          </mxGeometry>
        </mxCell>
        <mxCell id="uwEu2mCsa71uAg6sMR2n-102" value="동일 결과&lt;br&gt;유명인&lt;br&gt;" style="ellipse;whiteSpace=wrap;html=1;" vertex="1" parent="1">
          <mxGeometry x="220" y="1349.0000000000002" width="70" height="41" as="geometry" />
        </mxCell>
        <mxCell id="uwEu2mCsa71uAg6sMR2n-121" value="" style="edgeStyle=orthogonalEdgeStyle;rounded=0;orthogonalLoop=1;jettySize=auto;html=1;" edge="1" parent="1" source="uwEu2mCsa71uAg6sMR2n-103" target="uwEu2mCsa71uAg6sMR2n-11">
          <mxGeometry relative="1" as="geometry" />
        </mxCell>
        <mxCell id="uwEu2mCsa71uAg6sMR2n-103" value="직업 추천" style="ellipse;whiteSpace=wrap;html=1;" vertex="1" parent="1">
          <mxGeometry x="297.41" y="1349" width="67.41" height="40" as="geometry" />
        </mxCell>
        <mxCell id="uwEu2mCsa71uAg6sMR2n-130" value="매칭" style="ellipse;whiteSpace=wrap;html=1;" vertex="1" parent="1">
          <mxGeometry x="340" y="535" width="70" height="50" as="geometry" />
        </mxCell>
      </root>
    </mxGraphModel>
  </diagram>
</mxfile>
